<svg xmlns="http://www.w3.org/2000/svg">
  <symbol id="download" viewBox="0 0 100 100">
  <path d="M21.2 93.8h57.7c8.3 0 15-6.7 15-15V21.1c0-8.2-6.7-15-15-15H50c-1.9 0-3.5 1.6-3.5 3.5v48.5l-6.6-6.6a3.38 3.38 0 0 0-4.9 0 3.38 3.38 0 0 0 0 4.9l12.5 12.5c.7.7 1.6 1 2.5 1s1.8-.3 2.5-1L65 56.6c1.4-1.4 1.4-3.6 0-4.9s-3.6-1.4-4.9 0l-6.6 6.6v-45h25.3c4.4 0 8 3.6 8 8V79c0 4.4-3.6 8-8 8H21.2c-4.4 0-8-3.6-8-8V21.1c0-4.4 3.6-8 8-8h7.5c1.9 0 3.5-1.6 3.5-3.5s-1.6-3.5-3.5-3.5h-7.5c-8.3 0-15 6.7-15 15v57.7c0 8.3 6.7 15 15 15z"/>
  </symbol>
  <symbol id="excel" viewBox="0 0 512 512" >
	<path d="M496 80.011H288v-48c0-4.768-2.112-9.28-5.792-12.32-3.648-3.04-8.544-4.352-13.152-3.392l-256 48A15.955 15.955 0 0 0 0 80.011v352c0 7.68 5.472 14.304 13.056 15.712l256 48c.96.192 1.952.288 2.944.288 3.712 0 7.328-1.28 10.208-3.68a16.006 16.006 0 0 0 5.792-12.32v-48h208c8.832 0 16-7.168 16-16v-320c0-8.832-7.168-16-16-16zM220.032 309.483c5.824 6.624 5.152 16.736-1.504 22.56A15.943 15.943 0 0 1 208 336.011a15.951 15.951 0 0 1-12.032-5.472l-46.528-53.152-40.8 52.48A16.073 16.073 0 0 1 96 336.011c-3.424 0-6.88-1.088-9.824-3.36-6.976-5.44-8.224-15.488-2.816-22.464l44.608-57.344-44-50.304c-5.824-6.624-5.152-16.736 1.504-22.56 6.624-5.824 16.704-5.184 22.592 1.504L148 227.115l47.392-60.928c5.44-6.944 15.488-8.224 22.464-2.784 6.976 5.408 8.224 15.456 2.784 22.464l-51.2 65.792 50.592 57.824zM480 400.011H288v-32h48c8.832 0 16-7.168 16-16s-7.168-16-16-16h-48v-32h48c8.832 0 16-7.168 16-16s-7.168-16-16-16h-48v-32h48c8.832 0 16-7.168 16-16s-7.168-16-16-16h-48v-32h48c8.832 0 16-7.168 16-16s-7.168-16-16-16h-48v-32h192v288z"/>
	<path d="M432 144.011h-32c-8.832 0-16 7.168-16 16s7.168 16 16 16h32c8.832 0 16-7.168 16-16s-7.168-16-16-16zM432 208.011h-32c-8.832 0-16 7.168-16 16s7.168 16 16 16h32c8.832 0 16-7.168 16-16s-7.168-16-16-16zM432 272.011h-32c-8.832 0-16 7.168-16 16s7.168 16 16 16h32c8.832 0 16-7.168 16-16s-7.168-16-16-16zM432 336.011h-32c-8.832 0-16 7.168-16 16s7.168 16 16 16h32c8.832 0 16-7.168 16-16s-7.168-16-16-16z"/>
 </symbol>
  <symbol id="completed" viewBox="0 0 512 512" >
    <path d="M310.65 136.25c0 10.709-8.674 19.393-19.392 19.393H27.037c-10.709 0-19.392-8.684-19.392-19.393 0-10.709 8.683-19.392 19.392-19.392h264.222c10.718-.001 19.391 8.683 19.391 19.392zM310.65 233.212c0 10.709-8.674 19.393-19.392 19.393H27.037c-10.709 0-19.392-8.683-19.392-19.393 0-10.709 8.683-19.393 19.392-19.393h264.222c10.718 0 19.391 8.683 19.391 19.393zM222.173 330.174c0 10.718-8.683 19.392-19.393 19.392H27.037c-10.709 0-19.392-8.674-19.392-19.392 0-10.719 8.683-19.393 19.392-19.393h175.744c10.709 0 19.392 8.674 19.392 19.393zM344.736 433.062l-90.618-90.618c-7.575-7.575-7.575-19.847 0-27.421 7.575-7.576 19.847-7.576 27.421 0l90.618 90.617"/>
    <path d="M323.413 411.094L472.55 261.958c7.573-7.576 19.846-7.576 27.421 0 7.575 7.575 7.575 19.847 0 27.422L350.835 438.516"/>
  </symbol>
</svg>
