<?xml version="1.0" encoding="utf-8"?>
<!-- Generator: Adobe Illustrator 16.0.0, SVG Export Plug-In . SVG Version: 6.00 Build 0)  -->
<!DOCTYPE svg PUBLIC "-//W3C//DTD SVG 1.1//EN" "http://www.w3.org/Graphics/SVG/1.1/DTD/svg11.dtd">
<svg version="1.1" id="Layer_1" xmlns="http://www.w3.org/2000/svg" xmlns:xlink="http://www.w3.org/1999/xlink" x="0px" y="0px"
	 width="254.25px" height="122px" viewBox="0 21.5 254.25 122" enable-background="new 0 21.5 254.25 122" xml:space="preserve">
<g>
	<path fill="#020202" d="M238.27,134.679c-0.002,0-0.01,0-0.015,0h-94.866c-2.21,0-4.255-1.159-5.393-3.052
		c-1.138-1.896-1.198-4.245-0.159-6.194l47.432-89.1c1.094-2.051,3.229-3.333,5.554-3.333s4.459,1.283,5.551,3.333l47.234,88.728
		c0.605,0.964,0.952,2.104,0.952,3.328C244.56,131.861,241.744,134.679,238.27,134.679z M153.861,122.1h73.92l-36.959-69.426
		L153.861,122.1z"/>
</g>
<path fill="#010101" d="M93.12,33.764h-67.82c-9.172,0-16.609,7.437-16.609,16.609v68.511c0,9.173,7.436,16.61,16.609,16.61h67.82
	c9.172,0,16.609-7.437,16.609-16.61V50.374C109.729,41.2,102.292,33.764,93.12,33.764z M97.162,122.249H21.257V47.008H97.16v75.241
	H97.162z"/>
</svg>
