<?xml version="1.0" encoding="utf-8"?>
<!-- Generator: Adobe Illustrator 16.0.0, SVG Export Plug-In . SVG Version: 6.00 Build 0)  -->
<!DOCTYPE svg PUBLIC "-//W3C//DTD SVG 1.1//EN" "http://www.w3.org/Graphics/SVG/1.1/DTD/svg11.dtd">
<svg version="1.1" id="Layer_1" xmlns="http://www.w3.org/2000/svg" xmlns:xlink="http://www.w3.org/1999/xlink" x="0px" y="0px"
	 width="150px" height="150px" viewBox="0 0 150 150" style="enable-background:new 0 0 150 150;" xml:space="preserve">
<style type="text/css">
<![CDATA[
	.st0{fill:#020202;}
]]>
</style>
<g>
	<path class="st0" d="M135.731,137c-0.005,0-0.012,0-0.02,0H16.289c-2.78,0-5.356-1.459-6.788-3.843
		c-1.432-2.383-1.508-5.343-0.201-7.796L69.011,13.196C70.386,10.614,73.074,9,76,9c2.927,0,5.613,1.614,6.989,4.197l59.461,111.695
		c0.76,1.216,1.199,2.651,1.199,4.19C143.649,133.454,140.104,137,135.731,137z M29.473,121.164h93.054L76,33.766L29.473,121.164z"
		/>
</g>
</svg>
